<svg width="155" height="55" viewBox="0 0 155 55" fill="none" xmlns="http://www.w3.org/2000/svg">
<g id="Asset 4 1" clip-path="url(#clip0_306_8264)">
<g id="Layer 1">
<g id="Group">
<g id="Group_2">
<path id="Vector" d="M6.12768 1.09997C6.22602 0.540153 6.42272 0.245117 6.68749 0.245117C6.95227 0.245117 7.14896 0.411548 7.57638 1.2664L16.5712 19.8461L25.532 1.03566C25.7968 0.509893 25.9594 0.245117 26.2582 0.245117C26.5571 0.245117 26.7537 0.574196 26.8521 1.2664L29.8516 21.6277C30.1504 23.7043 30.4795 24.6575 31.4668 24.9563C32.4237 25.2513 33.0819 25.2854 33.5093 25.2854C33.8044 25.2854 34.0351 25.3194 34.0351 25.5161C34.0351 25.7809 33.6379 25.8792 33.1765 25.8792C32.3519 25.8792 27.8053 25.7809 26.489 25.6825C25.7325 25.6182 25.532 25.5161 25.532 25.3194C25.532 25.153 25.6644 25.0546 25.8951 24.9563C26.0918 24.892 26.1902 24.4608 26.0615 23.5378L24.0833 9.04325H23.9509L16.7679 23.9993C16.0114 25.5464 15.845 25.8452 15.5499 25.8452C15.2549 25.8452 14.922 25.187 14.3963 24.1998C13.6057 22.683 11.0033 17.6447 10.6062 16.7218C10.3111 16.0296 8.33289 11.8801 7.17922 9.40637H7.04683L5.33335 22.5166C5.26905 23.1104 5.235 23.5378 5.235 24.0636C5.235 24.6915 5.66243 24.9865 6.22224 25.1189C6.8161 25.2513 7.27756 25.2854 7.60664 25.2854C7.87142 25.2854 8.10215 25.3497 8.10215 25.5161C8.10215 25.8111 7.80712 25.8792 7.31161 25.8792C5.92721 25.8792 4.44446 25.7809 3.85439 25.7809C3.22649 25.7809 1.6454 25.8792 0.593855 25.8792C0.264776 25.8792 0 25.8149 0 25.5161C0 25.3497 0.196691 25.2854 0.52577 25.2854C0.790546 25.2854 1.02128 25.2854 1.51301 25.187C2.43594 24.9903 2.69694 23.7043 2.86337 22.5847L6.12768 1.09997Z" fill="white"/>
<path id="Vector_2" d="M35.2832 15.2692C35.2832 10.4919 38.6421 4.29993 47.4402 4.29993C54.7556 4.29993 59.2984 8.351 59.2984 14.7775C59.2984 21.204 54.6194 26.2423 47.1414 26.2423C38.7064 26.2423 35.2832 20.247 35.2832 15.273V15.2692ZM54.9826 15.795C54.9826 9.60301 51.2606 5.77889 46.5816 5.77889C43.3513 5.77889 39.565 7.49237 39.565 14.4106C39.565 20.1751 42.8596 24.7217 48.3291 24.7217C50.3717 24.7217 54.9826 23.7647 54.9826 15.795Z" fill="white"/>
<path id="Vector_3" d="M64.7033 12.7955C64.7033 8.54396 64.7033 7.75341 64.6693 6.86452C64.605 5.90754 64.3402 5.61251 63.4172 5.34773C63.1865 5.28343 62.691 5.24939 62.2636 5.24939C61.9685 5.24939 61.7681 5.15104 61.7681 4.95435C61.7681 4.75766 61.9988 4.68958 62.4262 4.68958C63.943 4.68958 65.7851 4.75388 66.379 4.75388C67.3662 4.75388 70.0026 4.68958 70.8915 4.68958C72.7374 4.68958 74.8442 4.85601 76.3951 5.87728C77.2196 6.4371 78.4376 7.85554 78.4376 9.73167C78.4376 11.8083 77.2499 13.6504 74.4168 15.9236C76.9851 19.0858 79.0277 21.6239 80.7752 23.3676C82.3904 24.9828 83.4116 25.1152 83.8731 25.2135C84.1681 25.2778 84.3346 25.2778 84.5653 25.2778C84.796 25.2778 84.9284 25.4442 84.9284 25.5728C84.9284 25.8036 84.7317 25.8679 84.3686 25.8679H81.5998C79.9847 25.8679 79.1941 25.7014 78.4376 25.3081C77.1856 24.6839 76.1 23.3638 74.4849 21.1889C73.3312 19.6721 72.1133 17.796 71.7501 17.3686C71.5837 17.2021 71.4211 17.1719 71.2244 17.1719L68.622 17.1076C68.4896 17.1076 68.3913 17.1719 68.3913 17.3383V17.7317C68.3913 20.3341 68.4253 22.509 68.5577 23.6929C68.656 24.5175 68.7884 25.0433 69.6773 25.1757C70.1047 25.24 70.7326 25.274 71.092 25.274C71.3227 25.274 71.4551 25.4404 71.4551 25.5691C71.4551 25.7657 71.2244 25.8641 70.8612 25.8641C69.1818 25.8641 66.7761 25.7657 66.3487 25.7657C65.7889 25.7657 63.943 25.8641 62.7893 25.8641C62.4262 25.8641 62.2295 25.7657 62.2295 25.5691C62.2295 25.4367 62.3279 25.274 62.691 25.274C63.1184 25.274 63.4475 25.24 63.7123 25.1757C64.3061 25.0433 64.4688 24.5175 64.5671 23.6929C64.6995 22.5052 64.6995 20.3 64.6995 17.7317V12.7917L64.7033 12.7955ZM68.3913 14.9705C68.3913 15.2655 68.4556 15.3676 68.656 15.466C69.2839 15.6627 70.1388 15.7307 70.865 15.7307C72.0187 15.7307 72.4121 15.6324 72.9076 15.2693C73.7965 14.6452 74.7837 13.4234 74.7837 11.1199C74.7837 7.16712 72.083 6.14584 70.3695 6.14584C69.6433 6.14584 68.9511 6.17989 68.656 6.24419C68.4593 6.30849 68.3913 6.41062 68.3913 6.63757V14.9742V14.9705Z" fill="white"/>
<path id="Vector_4" d="M104.828 23.9993C104.828 24.7558 104.828 24.7898 104.465 24.9865C102.521 25.9435 99.654 26.2385 97.3807 26.2385C90.2658 26.2385 83.9717 23.0082 83.9717 15.2692C83.9717 10.7869 86.3774 7.6588 89.044 6.11175C91.8128 4.49662 94.4152 4.29993 96.8511 4.29993C98.8597 4.29993 101.398 4.62901 101.992 4.76139C102.585 4.85974 103.607 5.02617 104.299 5.05643C104.628 5.09047 104.692 5.18882 104.692 5.38551C104.692 5.71459 104.496 6.47109 104.496 9.99639C104.496 10.4238 104.329 10.6243 104.102 10.6243C103.906 10.6243 103.837 10.4919 103.807 10.2612C103.743 9.63705 103.576 8.74438 102.82 7.95384C101.965 7.06494 99.7902 5.81293 96.5259 5.81293C94.9448 5.81293 92.9362 5.84698 90.924 7.45833C89.3088 8.77464 88.2573 10.8512 88.2573 14.2782C88.2573 20.3075 92.1457 24.6877 98.3377 24.6877C99.0942 24.6877 99.688 24.6877 100.38 24.3926C100.808 24.196 100.94 23.8971 100.94 23.4054V20.8371C100.94 19.4527 100.94 18.3974 100.906 17.5425C100.872 16.5855 100.577 16.2905 99.654 16.0257C99.4233 15.9614 98.9278 15.9274 98.5344 15.9274C98.2696 15.9274 98.0729 15.795 98.0729 15.6323C98.0729 15.4016 98.3036 15.3676 98.697 15.3676C100.214 15.3676 102.287 15.4319 103.145 15.4319C104.068 15.4319 105.581 15.3676 106.538 15.3676C106.932 15.3676 107.132 15.4016 107.132 15.6323C107.132 15.7988 106.966 15.9274 106.769 15.9274C106.538 15.9274 106.307 15.9614 105.978 16.0257C105.188 16.1581 104.893 16.5515 104.859 17.5425C104.825 18.3974 104.825 19.5208 104.825 20.9014V23.9993H104.828Z" fill="white"/>
<path id="Vector_5" d="M114.183 18.8248C114.017 18.8248 113.986 18.8588 113.918 19.0215L112.371 22.7775C112.076 23.4697 111.944 24.1619 111.944 24.491C111.944 24.9865 112.209 25.2815 113.098 25.2815H113.525C113.888 25.2815 113.952 25.4139 113.952 25.5766C113.952 25.8073 113.786 25.8716 113.491 25.8716C112.534 25.8716 111.184 25.7733 110.261 25.7733C109.966 25.7733 108.415 25.8716 106.902 25.8716C106.539 25.8716 106.376 25.8073 106.376 25.5766C106.376 25.4101 106.474 25.2815 106.705 25.2815C106.97 25.2815 107.299 25.2475 107.56 25.2475C108.876 25.0508 109.372 24.1922 109.966 22.7775L117.542 5.151C117.871 4.36045 118.102 4.03137 118.397 4.03137C118.824 4.03137 118.957 4.29615 119.252 4.92026C119.944 6.46731 124.785 17.9321 126.631 22.1837C127.751 24.7217 128.576 25.0811 129.101 25.1832C129.529 25.2475 129.858 25.2815 130.187 25.2815C130.452 25.2815 130.584 25.3799 130.584 25.5766C130.584 25.8073 130.418 25.8716 129.332 25.8716C128.311 25.8716 126.204 25.8716 123.764 25.8073C123.238 25.7733 122.909 25.7733 122.909 25.5766C122.909 25.4101 122.974 25.3118 123.272 25.2815C123.469 25.2475 123.666 24.9865 123.537 24.6574L121.298 19.0253C121.234 18.8588 121.132 18.8286 121.003 18.8286H114.183V18.8248ZM120.375 17.2777C120.507 17.2777 120.541 17.2134 120.507 17.1113L117.773 9.9964C117.739 9.89805 117.708 9.73162 117.64 9.73162C117.542 9.73162 117.508 9.89805 117.474 9.9964L114.675 17.081C114.611 17.2134 114.675 17.2777 114.773 17.2777H120.375Z" fill="white"/>
<path id="Vector_6" d="M135.566 22.0551C135.63 24.2301 135.993 24.8882 136.553 25.0849C137.048 25.2514 137.608 25.2816 138.07 25.2816C138.399 25.2816 138.565 25.414 138.565 25.5767C138.565 25.8074 138.3 25.8717 137.907 25.8717C136.031 25.8717 134.677 25.7733 134.151 25.7733C133.886 25.7733 132.506 25.8717 131.023 25.8717C130.63 25.8717 130.365 25.8376 130.365 25.5767C130.365 25.4102 130.561 25.2816 130.826 25.2816C131.223 25.2816 131.749 25.2476 132.143 25.1492C132.899 24.9525 132.997 24.1922 133.031 21.7563L133.296 5.15107C133.296 4.59126 133.493 4.19409 133.792 4.19409C134.155 4.19409 134.548 4.62152 135.044 5.11703C135.407 5.48015 139.757 9.92839 143.97 14.0438C145.949 15.988 149.803 19.9407 150.231 20.3379H150.363L150.068 7.88583C150.034 6.17235 149.773 5.67684 149.081 5.41584C148.653 5.24941 147.961 5.24941 147.564 5.24941C147.201 5.24941 147.102 5.11703 147.102 4.95438C147.102 4.72364 147.397 4.6896 147.829 4.6896C149.345 4.6896 150.892 4.7539 151.517 4.7539C151.846 4.7539 152.935 4.6896 154.35 4.6896C154.743 4.6896 155.008 4.72364 155.008 4.95438C155.008 5.12081 154.841 5.24941 154.512 5.24941C154.217 5.24941 153.987 5.24941 153.623 5.34776C152.833 5.57849 152.602 6.074 152.568 7.65509L152.239 25.3119C152.239 25.936 152.008 26.2008 151.778 26.2008C151.282 26.2008 150.889 25.9057 150.59 25.6069C148.778 23.9275 145.154 20.4665 142.125 17.535C138.962 14.5052 135.899 11.1123 135.339 10.6168H135.24L135.569 22.0476L135.566 22.0551Z" fill="white"/>
</g>
<g id="Group_3">
<path id="Vector_7" fill-rule="evenodd" clip-rule="evenodd" d="M149.231 28.0012H76.5085C74.9691 28.0012 73.7095 29.0944 73.7095 30.4258V52.3266C73.7095 53.6618 74.9691 54.7512 76.5085 54.7512H149.231C150.771 54.7512 152.03 53.658 152.03 52.3266V30.4258C152.03 29.0906 150.771 28.0012 149.231 28.0012Z" fill="#FC711B"/>
<g id="Clip path group">
<mask id="mask0_306_8264" style="mask-type:luminance" maskUnits="userSpaceOnUse" x="73" y="28" width="80" height="27">
<g id="clippath">
<path id="Vector_8" d="M149.232 28.0012H76.509C74.9695 28.0012 73.71 29.0944 73.71 30.4258V52.3266C73.71 53.6618 74.9695 54.7512 76.509 54.7512H149.232C150.771 54.7512 152.031 53.658 152.031 52.3266V30.4258C152.031 29.0906 150.771 28.0012 149.232 28.0012Z" fill="white"/>
</g>
</mask>
<g mask="url(#mask0_306_8264)">
<g id="Group_4">
<path id="Vector_9" opacity="0.71" d="M158.846 41.3762H46.7817V72.0675H158.846V41.3762Z" fill="#FC3400"/>
</g>
</g>
</g>
<g id="Group_5">
<path id="Vector_10" d="M90.0497 43.5814C90.0497 45.779 90.0497 47.5001 90.1632 48.4608C90.2313 49.1266 90.3674 49.6296 91.0559 49.7204C91.3774 49.7658 91.8805 49.8112 92.202 49.8112C92.5008 49.8112 92.5916 49.8793 92.5916 49.9928C92.5916 50.1516 92.4327 50.2235 92.0885 50.2235C90.6436 50.2235 89.2024 50.1554 88.6048 50.1554C88.0072 50.1554 86.566 50.2235 85.696 50.2235C85.3745 50.2235 85.2157 50.1781 85.2157 49.9928C85.2157 49.8793 85.3064 49.8112 85.5599 49.8112C85.9041 49.8112 86.1802 49.7658 86.3845 49.7204C86.8421 49.6296 86.9556 49.1266 87.0502 48.4608C87.1637 47.5001 87.1637 45.779 87.1637 43.5814V39.5492C87.1637 36.0655 87.1637 35.4263 87.1183 34.6925C87.0729 33.9133 86.8875 33.5464 86.1348 33.3875C85.9495 33.3421 85.5637 33.3194 85.2421 33.3194C85.0114 33.3194 84.8525 33.274 84.8525 33.1379C84.8525 32.9563 85.0341 32.9071 85.3783 32.9071C85.9759 32.9071 86.6379 32.9298 87.2355 32.9298C87.8294 32.9525 88.3589 32.9752 88.6767 32.9752C89.5466 32.9752 94.1991 32.9752 94.7249 32.9525C95.1599 32.9298 95.436 32.9298 95.663 32.8618C95.7991 32.8164 95.9164 32.7256 96.0299 32.7256C96.1207 32.7256 96.1887 32.8164 96.1887 32.9336C96.1887 33.0925 96.0753 33.3686 96.0072 33.9663C95.9845 34.197 95.9391 35.5473 95.8937 35.8235C95.871 36.005 95.8256 36.145 95.663 36.145C95.5003 36.145 95.4549 36.0315 95.4322 35.7781C95.4322 35.5965 95.4322 35.2296 95.2961 34.9081C95.1372 34.5866 94.653 34.2424 93.7831 34.2197L90.254 34.1516C90.1178 34.1516 90.0497 34.2197 90.0497 34.4731V40.1998C90.0497 40.336 90.0724 40.4079 90.2086 40.4079L93.14 40.3852C93.5296 40.3852 93.8512 40.3852 94.1689 40.3625C94.6039 40.3398 94.9254 40.249 95.1523 39.9502C95.2658 39.814 95.3112 39.7195 95.4512 39.7195C95.5419 39.7195 95.5873 39.7875 95.5873 39.9237C95.5873 40.0599 95.4738 40.6348 95.402 41.3422C95.3566 41.7998 95.3112 42.8552 95.3112 43.014C95.3112 43.2221 95.3112 43.449 95.0805 43.449C94.9443 43.449 94.8989 43.2901 94.8989 43.1275C94.8989 42.9649 94.8535 42.6925 94.7627 42.4164C94.6493 42.0949 94.3051 41.6826 93.5939 41.5918C93.0228 41.5237 90.5944 41.5237 90.2048 41.5237C90.0913 41.5237 90.0459 41.5691 90.0459 41.7318V43.589L90.0497 43.5814Z" fill="white"/>
<path id="Vector_11" d="M101.412 39.5492C101.412 36.0655 101.412 35.4263 101.367 34.6925C101.321 33.9133 101.136 33.5464 100.383 33.3875C100.202 33.3421 99.8122 33.3194 99.4907 33.3194C99.2372 33.3194 99.1011 33.2741 99.1011 33.1152C99.1011 32.9563 99.2599 32.9071 99.6041 32.9071C100.224 32.9071 100.886 32.9298 101.461 32.9298C102.055 32.9525 102.585 32.9752 102.906 32.9752C103.64 32.9752 108.198 32.9752 108.633 32.9525C109.068 32.9071 109.435 32.8618 109.616 32.8164C109.73 32.7937 109.87 32.7256 109.983 32.7256C110.097 32.7256 110.12 32.8164 110.12 32.9336C110.12 33.0925 110.006 33.3686 109.938 34.4239C109.915 34.6547 109.87 35.6608 109.825 35.9369C109.802 36.0504 109.756 36.1904 109.594 36.1904C109.431 36.1904 109.39 36.0769 109.39 35.8689C109.39 35.71 109.367 35.3204 109.253 35.0443C109.094 34.632 108.864 34.3558 107.718 34.2197C107.328 34.1743 104.922 34.1289 104.465 34.1289C104.351 34.1289 104.306 34.197 104.306 34.3596V40.1544C104.306 40.3133 104.329 40.4079 104.465 40.4079C104.968 40.4079 107.604 40.4079 108.13 40.3625C108.678 40.3171 109.023 40.249 109.231 40.0183C109.39 39.8367 109.484 39.7195 109.598 39.7195C109.688 39.7195 109.756 39.7648 109.756 39.901C109.756 40.0372 109.666 40.4041 109.575 41.5729C109.552 42.0306 109.484 42.9459 109.484 43.1086C109.484 43.2901 109.484 43.5436 109.28 43.5436C109.121 43.5436 109.076 43.4528 109.076 43.3393C109.053 43.1086 109.053 42.8136 108.985 42.5147C108.871 42.057 108.55 41.7128 107.703 41.6221C107.268 41.5767 104.998 41.554 104.45 41.554C104.336 41.554 104.313 41.6448 104.313 41.7847V43.5927C104.313 44.3719 104.291 46.4788 104.313 47.1445C104.359 48.7256 104.726 49.0698 107.063 49.0698C107.661 49.0698 108.622 49.0698 109.216 48.7937C109.809 48.5176 110.086 48.0372 110.248 47.0991C110.294 46.8457 110.339 46.7549 110.502 46.7549C110.683 46.7549 110.683 46.9365 110.683 47.1672C110.683 47.693 110.502 49.2514 110.384 49.7091C110.225 50.3029 110.017 50.3029 109.147 50.3029C107.43 50.3029 106.171 50.2575 105.183 50.2348C104.2 50.1895 103.489 50.1668 102.8 50.1668C102.547 50.1668 102.044 50.1668 101.495 50.1895C100.97 50.1895 100.372 50.2348 99.9143 50.2348C99.6155 50.2348 99.4566 50.1668 99.4566 50.0041C99.4566 49.8906 99.5474 49.8226 99.8235 49.8226C100.168 49.8226 100.444 49.7772 100.648 49.7318C101.106 49.641 101.219 49.1379 101.314 48.4722C101.427 47.5114 101.427 45.6996 101.427 43.5927V39.5606L101.412 39.5492Z" fill="white"/>
<path id="Vector_12" d="M114.629 49.9512C114.262 49.7923 114.194 49.675 114.194 49.172C114.194 47.9124 114.285 46.5393 114.307 46.1724C114.33 45.8282 114.398 45.5786 114.583 45.5786C114.788 45.5786 114.814 45.7828 114.814 45.9682C114.814 46.267 114.905 46.7474 115.018 47.137C115.522 48.8315 116.876 49.4519 118.294 49.4519C120.356 49.4519 121.365 48.0561 121.365 46.8419C121.365 45.7185 121.021 44.667 119.122 43.1767L118.067 42.3521C115.548 40.3814 114.678 38.7776 114.678 36.9242C114.678 34.405 116.785 32.5932 119.97 32.5932C121.46 32.5932 122.421 32.8239 123.015 32.9828C123.223 33.0282 123.336 33.0963 123.336 33.2589C123.336 33.5577 123.245 34.2197 123.245 36.0088C123.245 36.5119 123.177 36.6972 122.992 36.6972C122.833 36.6972 122.761 36.5611 122.761 36.2849C122.761 36.0807 122.648 35.3696 122.167 34.7719C121.823 34.3369 121.157 33.6485 119.671 33.6485C117.976 33.6485 116.944 34.632 116.944 36.0088C116.944 37.0641 117.47 37.866 119.372 39.3072L120.015 39.7875C122.788 41.8717 123.771 43.4528 123.771 45.6278C123.771 46.9554 123.268 48.5365 121.619 49.6145C120.473 50.3483 119.191 50.5526 117.976 50.5526C116.649 50.5526 115.616 50.3937 114.633 49.9587L114.629 49.9512Z" fill="white"/>
<path id="Vector_13" d="M132.267 34.1894L128.855 34.2802C127.527 34.3256 126.975 34.4391 126.634 34.9459C126.404 35.2901 126.29 35.5663 126.245 35.7478C126.199 35.9294 126.131 36.0239 125.991 36.0239C125.833 36.0239 125.787 35.9105 125.787 35.657C125.787 35.2901 126.222 33.206 126.267 33.0244C126.336 32.7256 126.404 32.5894 126.544 32.5894C126.725 32.5894 126.956 32.8201 127.527 32.8655C128.193 32.9336 129.063 32.979 129.819 32.979H138.89C139.624 32.979 140.127 32.9109 140.471 32.8655C140.815 32.7975 140.997 32.7521 141.091 32.7521C141.25 32.7521 141.273 32.8882 141.273 33.2324C141.273 33.7128 141.205 35.2939 141.205 35.8916C141.182 36.1223 141.137 36.2585 141 36.2585C140.815 36.2585 140.77 36.145 140.747 35.8008L140.724 35.5473C140.679 34.9535 140.059 34.3105 138.02 34.2651L135.134 34.197V43.589C135.134 45.6958 135.134 47.5077 135.247 48.4911C135.315 49.1341 135.451 49.6372 136.14 49.728C136.461 49.7734 136.964 49.8188 137.309 49.8188C137.562 49.8188 137.676 49.8869 137.676 50.0003C137.676 50.1592 137.494 50.2311 137.241 50.2311C135.728 50.2311 134.286 50.163 133.643 50.163C133.118 50.163 131.673 50.2311 130.757 50.2311C130.459 50.2311 130.3 50.163 130.3 50.0003C130.3 49.8869 130.39 49.8188 130.667 49.8188C131.011 49.8188 131.283 49.7734 131.491 49.728C131.949 49.6372 132.089 49.1341 132.157 48.4684C132.27 47.5077 132.27 45.6958 132.27 43.589V34.197L132.267 34.1894Z" fill="white"/>
</g>
<g id="Group_6">
<path id="Vector_14" d="M6.58516 34.1895L3.17333 34.2803C1.84567 34.3257 1.29342 34.4391 0.949211 34.946C0.718477 35.2902 0.605002 35.5663 0.559612 35.7479C0.514222 35.9294 0.446136 36.024 0.306183 36.024C0.147317 36.024 0.0981445 35.9105 0.0981445 35.6571C0.0981445 35.2902 0.533134 33.206 0.578524 33.0245C0.64661 32.7256 0.714695 32.5895 0.854648 32.5895C1.03621 32.5895 1.26694 32.8202 1.8381 32.8656C2.50383 32.9337 3.37381 32.9791 4.13031 32.9791H13.2008C13.9346 32.9791 14.4377 32.911 14.7819 32.8656C15.1261 32.7975 15.3077 32.7521 15.4022 32.7521C15.5611 32.7521 15.5838 32.8883 15.5838 33.2325C15.5838 33.7129 15.5157 35.294 15.5157 35.8916C15.493 36.1223 15.4476 36.2585 15.3114 36.2585C15.1299 36.2585 15.0807 36.145 15.058 35.8008L15.0353 35.5474C14.9899 34.9535 14.3696 34.3105 12.3308 34.2651L9.44475 34.197V43.589C9.44475 45.6959 9.44475 47.5077 9.55822 48.4912C9.62631 49.1342 9.76248 49.6373 10.4509 49.7281C10.7724 49.7734 11.2755 49.8188 11.6197 49.8188C11.8731 49.8188 11.9866 49.8869 11.9866 50.0004C11.9866 50.1593 11.8013 50.2311 11.5516 50.2311C10.0386 50.2311 8.59746 50.163 7.95443 50.163C7.42866 50.163 5.98374 50.2311 5.06837 50.2311C4.76955 50.2311 4.61069 50.163 4.61069 50.0004C4.61069 49.8869 4.70147 49.8188 4.97759 49.8188C5.3218 49.8188 5.59793 49.7734 5.80218 49.7281C6.25987 49.6373 6.39982 49.1342 6.4679 48.4685C6.58138 47.5077 6.58138 45.6959 6.58138 43.589V34.197L6.58516 34.1895Z" fill="white"/>
<path id="Vector_15" d="M19.8014 39.5492C19.8014 36.0655 19.8014 35.4263 19.756 34.6925C19.7106 33.9133 19.5252 33.5464 18.7725 33.3875C18.5909 33.3421 18.2013 33.3194 17.8798 33.3194C17.6264 33.3194 17.4902 33.2741 17.4902 33.1152C17.4902 32.9563 17.6491 32.9071 17.9933 32.9071C18.6099 32.9071 19.2756 32.9298 19.8505 32.9298C20.4482 32.9525 20.9739 32.9752 21.2954 32.9752C22.0293 32.9752 26.5872 32.9752 27.0222 32.9525C27.4572 32.9071 27.8241 32.8618 28.0056 32.8164C28.1191 32.7937 28.2591 32.7256 28.3725 32.7256C28.486 32.7256 28.5087 32.8164 28.5087 32.9336C28.5087 33.0925 28.3952 33.3686 28.3271 34.4239C28.3045 34.6547 28.2591 35.6608 28.2137 35.9369C28.191 36.0504 28.1456 36.1904 27.9829 36.1904C27.8203 36.1904 27.7787 36.0769 27.7787 35.8689C27.7787 35.71 27.756 35.3204 27.6425 35.0443C27.4836 34.632 27.2529 34.3558 26.1068 34.2197C25.7172 34.1743 23.3115 34.1289 22.8538 34.1289C22.7404 34.1289 22.695 34.197 22.695 34.3596V40.1544C22.695 40.3133 22.7177 40.4079 22.8538 40.4079C23.3569 40.4079 25.9933 40.4079 26.5191 40.3625C27.0676 40.3171 27.4118 40.249 27.6198 40.0183C27.7787 39.8367 27.8732 39.7195 27.9867 39.7195C28.0775 39.7195 28.1456 39.7648 28.1456 39.901C28.1456 40.0372 28.0548 40.4041 27.9602 41.5729C27.9375 42.0306 27.8695 42.9459 27.8695 43.1086C27.8695 43.2901 27.8695 43.5436 27.6652 43.5436C27.5063 43.5436 27.4609 43.4528 27.4609 43.3393C27.4383 43.1086 27.4383 42.8136 27.3702 42.5147C27.2567 42.057 26.9352 41.7128 26.0879 41.6221C25.6529 41.5767 23.3834 41.554 22.8349 41.554C22.7215 41.554 22.6988 41.6448 22.6988 41.7847V43.5927C22.6988 44.3719 22.6761 46.4788 22.6988 47.1445C22.7442 48.7256 23.1111 49.0698 25.4487 49.0698C26.0463 49.0698 27.007 49.0698 27.6009 48.7937C28.1985 48.5176 28.4709 48.0372 28.6335 47.0991C28.6789 46.8457 28.7243 46.7549 28.887 46.7549C29.0723 46.7549 29.0723 46.9365 29.0723 47.1672C29.0723 47.693 28.887 49.2514 28.7735 49.7091C28.6146 50.3029 28.4066 50.3029 27.5366 50.3029C25.8193 50.3029 24.5598 50.2575 23.5725 50.2348C22.5891 50.1895 21.878 50.1668 21.1895 50.1668C20.9361 50.1668 20.433 50.1668 19.8846 50.1895C19.3588 50.1895 18.7612 50.2348 18.3035 50.2348C18.0047 50.2348 17.8458 50.1668 17.8458 50.0041C17.8458 49.8906 17.9366 49.8226 18.2127 49.8226C18.5569 49.8226 18.8292 49.7772 19.0373 49.7318C19.495 49.641 19.6084 49.1379 19.703 48.4722C19.8165 47.5114 19.8165 45.6996 19.8165 43.5927V39.5606L19.8014 39.5492Z" fill="white"/>
<path id="Vector_16" d="M34.6209 48.0486C32.3741 46.0779 31.7803 43.5134 31.7803 41.2893C31.7803 39.7309 32.2607 37.0301 34.4621 35.0141C36.1113 33.5011 38.2862 32.5857 41.7018 32.5857C43.124 32.5857 43.9713 32.6765 45.0229 32.8164C45.8928 32.9299 46.6267 33.1379 47.3151 33.206C47.5685 33.2287 47.6593 33.3422 47.6593 33.4822C47.6593 33.6637 47.5912 33.9398 47.5458 34.7417C47.5004 35.4982 47.5231 36.7578 47.4777 37.2155C47.455 37.5597 47.4096 37.7413 47.2016 37.7413C47.02 37.7413 46.9709 37.5597 46.9709 37.2382C46.9482 36.5271 46.6494 35.7252 46.0782 35.1313C45.3217 34.3294 43.5363 33.7129 41.4295 33.7129C39.4361 33.7129 38.1311 34.216 37.125 35.1313C35.4531 36.667 35.0181 38.842 35.0181 41.0661C35.0181 46.5167 39.1637 49.2212 42.2352 49.2212C44.2739 49.2212 45.5108 48.9905 46.4262 47.9389C46.8158 47.5039 47.1146 46.8382 47.2054 46.4259C47.2735 46.059 47.3189 45.9682 47.5042 45.9682C47.6631 45.9682 47.7085 46.1271 47.7085 46.3124C47.7085 46.5886 47.4323 48.5819 47.2054 49.3574C47.0919 49.747 47.0011 49.8604 46.6115 50.0231C45.6962 50.39 43.9524 50.5489 42.4886 50.5489C39.3491 50.5489 36.7165 49.8604 34.6323 48.0524L34.6209 48.0486Z" fill="white"/>
<path id="Vector_17" d="M64.3555 40.1922C64.4236 40.1922 64.4917 40.1469 64.4917 40.0334V39.553C64.4917 36.0693 64.4917 35.4301 64.4463 34.6963C64.4009 33.9171 64.2156 33.5502 63.4628 33.3913C63.2813 33.3459 62.8917 33.3232 62.5702 33.3232C62.3167 33.3232 62.1806 33.2778 62.1806 33.1189C62.1806 32.9601 62.3394 32.9109 62.6609 32.9147C63.8978 32.9147 65.339 32.9828 65.9593 32.9828C66.5078 32.9828 67.9527 32.9147 68.8454 32.9147C69.1669 32.9147 69.3257 32.9601 69.3257 33.1227C69.3257 33.2854 69.1896 33.327 68.9135 33.327C68.7319 33.327 68.5238 33.3497 68.2477 33.3951C67.6312 33.5085 67.4458 33.8981 67.4004 34.7C67.3551 35.4338 67.3551 36.0731 67.3551 39.5568V43.5889C67.3551 45.6958 67.3551 47.5076 67.4685 48.4911C67.5366 49.1341 67.6728 49.6372 68.3612 49.728C68.6827 49.7734 69.1858 49.8187 69.53 49.8187C69.7834 49.8187 69.8969 49.8868 69.8969 50.0003C69.8969 50.1592 69.7153 50.231 69.4392 50.231C67.9489 50.231 66.5078 50.163 65.8647 50.163C65.339 50.163 63.894 50.231 63.0014 50.231C62.6799 50.231 62.521 50.163 62.521 50.0003C62.521 49.8868 62.6118 49.8187 62.8879 49.8187C63.2321 49.8187 63.5082 49.7734 63.7125 49.728C64.1702 49.6372 64.2836 49.1341 64.3782 48.4684C64.4917 47.5076 64.4917 45.6958 64.4917 43.5889V41.5729C64.4917 41.4821 64.4236 41.4367 64.3555 41.4367H55.6066C55.5385 41.4367 55.4704 41.4594 55.4704 41.5729V43.5889C55.4704 45.6958 55.4704 47.5076 55.5839 48.4911C55.6519 49.1341 55.7881 49.6372 56.4765 49.728C56.798 49.7734 57.3011 49.8187 57.6453 49.8187C57.8988 49.8187 58.0122 49.8868 58.0122 50.0003C58.0122 50.1592 57.8307 50.231 57.5546 50.231C56.0642 50.231 54.6231 50.163 53.9801 50.163C53.4543 50.163 52.0094 50.231 51.094 50.231C50.7952 50.231 50.6363 50.163 50.6363 50.0003C50.6363 49.8868 50.7271 49.8187 51.0032 49.8187C51.3474 49.8187 51.6236 49.7734 51.8278 49.728C52.2855 49.6372 52.399 49.1341 52.4935 48.4684C52.607 47.5076 52.607 45.6958 52.607 43.5889V39.5568C52.607 36.0731 52.607 35.4338 52.5616 34.7C52.5162 33.9208 52.3309 33.5539 51.5782 33.3951C51.3928 33.3497 51.007 33.327 50.6855 33.327C50.4321 33.327 50.2959 33.2816 50.2959 33.1227C50.2959 32.9639 50.4548 32.9147 50.7763 32.9185C52.0132 32.9185 53.4543 32.9866 54.0746 32.9866C54.6231 32.9866 56.068 32.9185 56.9607 32.9185C57.2822 32.9185 57.4411 32.9639 57.4411 33.1265C57.4411 33.2892 57.3049 33.3308 57.0288 33.3308C56.8472 33.3308 56.6392 33.3535 56.3631 33.3989C55.7465 33.5123 55.5612 33.9019 55.5158 34.7038C55.4704 35.4376 55.4704 36.0769 55.4704 39.5606V40.0409C55.4704 40.1544 55.5385 40.1998 55.6066 40.1998H64.3555V40.1922Z" fill="white"/>
</g>
</g>
</g>
</g>
</g>
<defs>
<clipPath id="clip0_306_8264">
<rect width="155" height="54.5098" fill="white" transform="translate(0 0.245117)"/>
</clipPath>
</defs>
</svg>
